<svg xmlns="http://www.w3.org/2000/svg" xmlns:xlink="http://www.w3.org/1999/xlink" viewBox="0 0 975.17 588.35"><defs><style>.cls-1,.cls-2{fill-rule:evenodd;}.cls-1{fill:url(#linear-gradient);}.cls-2{fill:url(#logo);}.cls-3{fill:#3dc2ff00;}</style><linearGradient id="linear-gradient" x1="456.34" y1="125.51" x2="975.17" y2="125.51" gradientUnits="userSpaceOnUse"><stop offset="1" stop-color="#88E800"/><stop offset="1" stop-color="#fff" stop-opacity="0"/></linearGradient><linearGradient id="logo" x1="-36.6" y1="90" x2="864.68" y2="225.94" gradientUnits="userSpaceOnUse"><stop offset="0.48" stop-color="#eceff4"/><stop offset="0.80" stop-color="#3dc2ff"/></linearGradient></defs><g id="Layer_2" data-name="Layer 2"><g id="Layer_1-2" data-name="Layer 1"><path class="cls-1" d="M456.34,118.44l75,122.2s23.28-47.2,38.59-62.17S608.43,150,634.29,142s227.25-4.29,227.25-4.29L975.17,13.39s-276.43-6.75-349.46,0c-58.62,5.41-98.18,31.37-109.34,40.73A380.5,380.5,0,0,0,456.34,118.44Z"/><path class="cls-2" d="M0,582.68l343-581s14.17-3.22,17.15,2.14c46,82.83,218.18,380.76,240.12,407.35,15.48,18.76,41.07,45.52,96.48,47.17,44.42,1.31,257.27,0,257.27,0L883.3,584.83s-194,7.86-257.27-4.29c-44.18-8.49-78.26-23.58-117.92-66.46S349.46,239.66,349.46,239.66L272.28,368.29l111.48,2.14,64.32,115.78-242.26,4.28-55.75,92.19Z"/><path class="cls-3" d="M0,582.68,342.41,1.32h0a.68.68,0,0,1,.45-.33,45.52,45.52,0,0,1,6.77-.92,22.74,22.74,0,0,1,6.9.49,7.73,7.73,0,0,1,3.27,1.67,5.55,5.55,0,0,1,.66.71c.18.28.37.57.49.8l.82,1.47,3.27,5.86,13.2,23.39,26.61,46.67q26.73,46.6,53.72,93.06t54.24,92.76c18.18,30.85,36.46,61.66,55.09,92.24q7,11.44,14.11,22.84c4.76,7.58,9.56,15.14,14.6,22.5l1.91,2.74,2,2.63c.64.89,1.41,1.72,2.12,2.58s1.42,1.72,2.17,2.55c1.46,1.67,2.93,3.34,4.47,5s3.1,3.19,4.68,4.75a111,111,0,0,0,21.08,16.18,108.07,108.07,0,0,0,24.35,10.62c.53.17,1.05.36,1.59.51l1.61.41,3.23.82c1.08.27,2.15.56,3.23.81l3.28.61,3.28.61c1.09.21,2.18.41,3.29.52l6.63.8c1.1.16,2.21.21,3.32.27l3.33.2c2.23.12,4.44.31,6.68.31,4.47.1,8.94.2,13.42.24,8.94.12,17.9.15,26.85.21,71.63.22,143.27-.15,214.9-.55a1,1,0,0,1,1.05,1,1.18,1.18,0,0,1-.13.52l-70.73,126.5a1.07,1.07,0,0,1-.89.54q-44.57,1.65-89.13,2.22c-29.72.35-59.45.38-89.17-.41l-11.15-.32-11.14-.49c-3.71-.18-7.43-.3-11.14-.54l-11.13-.76-5.57-.4-5.56-.56c-3.7-.41-7.41-.71-11.1-1.19l-11.07-1.71-1.38-.21-1.37-.28-2.74-.57c-1.82-.39-3.65-.71-5.46-1.16q-10.92-2.43-21.6-5.84c-1.77-.58-3.52-1.22-5.29-1.83l-2.64-.93-2.6-1c-1.73-.7-3.48-1.36-5.2-2.09l-5.11-2.3a170.68,170.68,0,0,1-19.64-10.75c-3.2-1.94-6.23-4.12-9.29-6.25-1.55-1-3-2.23-4.49-3.35s-3-2.25-4.42-3.43c-5.76-4.74-11.39-9.64-16.7-14.87l-4-3.91c-1.32-1.32-2.58-2.69-3.87-4l-3.86-4-3.69-4.25c-1.2-1.43-2.31-2.93-3.47-4.39s-2.26-3-3.36-4.48-2.21-3-3.27-4.53l-3.17-4.59c-2.14-3.05-4.13-6.19-6.21-9.28l-6-9.39C462.47,448.79,447.64,423,433,397.14s-28.81-52-42.84-78.19-27.9-52.47-41.51-78.89l1.53.05L272.94,368.69l-.65-1.17,111.49,2.23a.65.65,0,0,1,.58.35L448.6,485.92a.58.58,0,0,1-.23.8.6.6,0,0,1-.28.08l-242.27,4,.28-.16-55.86,92.12a.2.2,0,0,1-.17.09Zm0,0,150.07-.19-.16.09,55.62-92.26a.37.37,0,0,1,.28-.16l242.26-4.55-.51.88-64.4-115.72.59.35-111.49-2.06a.77.77,0,0,1-.64-1.17L348.71,239.2a.88.88,0,0,1,1.2-.3,1,1,0,0,1,.33.35c27.36,52.74,55.32,105.18,84.42,157,14.62,25.85,29.45,51.6,45.28,76.71l6,9.35c2.07,3.08,4.06,6.21,6.19,9.25l3.16,4.57c1.05,1.52,2.17,3,3.25,4.5s2.17,3,3.33,4.44,2.25,2.93,3.43,4.34l3.62,4.16,3.84,4c1.29,1.33,2.54,2.69,3.85,4l4,3.88c5.27,5.19,10.86,10,16.57,14.74,1.43,1.17,2.92,2.26,4.38,3.4s2.91,2.29,4.45,3.31c3,2.11,6,4.27,9.19,6.18a167,167,0,0,0,19.43,10.62l5,2.27c1.7.73,3.43,1.38,5.14,2.07l2.57,1L590,570c1.75.6,3.48,1.23,5.24,1.81,7,2.23,14.19,4.18,21.41,5.78,1.8.44,3.63.76,5.44,1.15l2.72.56,1.36.28,1.37.21,11,1.68c3.67.48,7.37.78,11,1.18l5.53.56,5.55.39,11.1.76c3.7.24,7.41.35,11.11.53l11.12.49,11.13.3c29.68.78,59.39.74,89.09.37s59.4-1.14,89.07-2.26l-.88.55,70.76-126.48.92,1.55c-71.64.37-143.27.71-214.92.45-9-.06-17.91-.1-26.87-.23-4.48,0-9-.14-13.44-.24-2.24,0-4.49-.2-6.74-.32l-3.37-.2c-1.13-.06-2.25-.11-3.37-.28l-6.71-.81c-1.12-.11-2.23-.32-3.34-.53L672,456.6l-3.32-.62c-1.1-.25-2.19-.55-3.29-.82l-3.28-.84-1.63-.42c-.55-.14-1.08-.34-1.62-.51a110.41,110.41,0,0,1-24.76-10.82,112.83,112.83,0,0,1-21.44-16.46c-1.6-1.59-3.22-3.15-4.74-4.82s-3-3.32-4.52-5c-.75-.84-1.47-1.7-2.19-2.56s-1.47-1.69-2.14-2.62L597,408.38l-1.93-2.77c-5.08-7.42-9.87-15-14.64-22.58S571,367.8,566.3,360.16c-18.63-30.61-36.89-61.42-55.06-92.29S475,206.05,457.08,175.05s-35.82-62-53.59-93.14L376.93,35.2,363.77,11.78,360.5,5.91l-.81-1.47c-.14-.27-.27-.44-.39-.64a4.61,4.61,0,0,0-.48-.51A6.25,6.25,0,0,0,356.16,2a20.91,20.91,0,0,0-6.44-.46,44.57,44.57,0,0,0-6.53.88l.45-.34Z"/></g></g></svg>
